<svg width="20" height="20" viewBox="0 0 20 20" fill="none" xmlns="http://www.w3.org/2000/svg">
<path d="M10.8567 1.66748C11.7946 1.66903 12.2698 1.67399 12.6805 1.68621L12.8422 1.69151C13.0291 1.69815 13.2134 1.70648 13.4357 1.7169C14.3224 1.75786 14.9273 1.89815 15.4586 2.1044C16.0078 2.3162 16.4717 2.60231 16.9349 3.06551C17.3974 3.5287 17.6836 3.99398 17.8961 4.5419C18.1016 5.07245 18.2419 5.67801 18.2836 6.56481C18.2935 6.78703 18.3015 6.97136 18.3081 7.15824L18.3133 7.31997C18.3255 7.7306 18.3311 8.20591 18.3328 9.14375L18.3335 9.76516C18.3336 9.84108 18.3336 9.91942 18.3336 10.0002L18.3335 10.2353L18.333 10.8567C18.3314 11.7946 18.3265 12.2698 18.3142 12.6805L18.3089 12.8422C18.3023 13.0291 18.294 13.2134 18.2836 13.4357C18.2426 14.3224 18.1016 14.9273 17.8961 15.4586C17.6842 16.0078 17.3974 16.4717 16.9349 16.9349C16.4717 17.3974 16.0057 17.6836 15.4586 17.8961C14.9273 18.1016 14.3224 18.2419 13.4357 18.2836C13.2134 18.2935 13.0291 18.3015 12.8422 18.3081L12.6805 18.3133C12.2698 18.3255 11.7946 18.3311 10.8567 18.3328L10.2353 18.3335C10.1594 18.3336 10.0811 18.3336 10.0002 18.3336L9.76516 18.3335L9.14375 18.333C8.20591 18.3314 7.7306 18.3265 7.31997 18.3142L7.15824 18.3089C6.97136 18.3023 6.78703 18.294 6.56481 18.2836C5.67801 18.2426 5.07384 18.1016 4.5419 17.8961C3.99328 17.6842 3.5287 17.3974 3.06551 16.9349C2.60231 16.4717 2.3169 16.0057 2.1044 15.4586C1.89815 14.9273 1.75856 14.3224 1.7169 13.4357C1.707 13.2134 1.69892 13.0291 1.69238 12.8422L1.68714 12.6805C1.67495 12.2698 1.66939 11.7946 1.66759 10.8567L1.66748 9.14375C1.66903 8.20591 1.67399 7.7306 1.68621 7.31997L1.69151 7.15824C1.69815 6.97136 1.70648 6.78703 1.7169 6.56481C1.75786 5.67731 1.89815 5.07315 2.1044 4.5419C2.3162 3.99328 2.60231 3.5287 3.06551 3.06551C3.5287 2.60231 3.99398 2.3169 4.5419 2.1044C5.07315 1.89815 5.67731 1.75856 6.56481 1.7169C6.78703 1.707 6.97136 1.69892 7.15824 1.69238L7.31997 1.68714C7.7306 1.67495 8.20591 1.66939 9.14375 1.66759L10.8567 1.66748ZM10.0002 5.83356C7.69781 5.83356 5.83356 7.69984 5.83356 10.0002C5.83356 12.3027 7.69984 14.1669 10.0002 14.1669C12.3027 14.1669 14.1669 12.3006 14.1669 10.0002C14.1669 7.69781 12.3006 5.83356 10.0002 5.83356ZM10.0002 7.50023C11.381 7.50023 12.5002 8.61908 12.5002 10.0002C12.5002 11.381 11.3813 12.5002 10.0002 12.5002C8.6195 12.5002 7.50023 11.3813 7.50023 10.0002C7.50023 8.6195 8.61908 7.50023 10.0002 7.50023ZM14.3752 4.58356C13.8008 4.58356 13.3336 5.05015 13.3336 5.62452C13.3336 6.19889 13.8002 6.6662 14.3752 6.6662C14.9496 6.6662 15.4169 6.19961 15.4169 5.62452C15.4169 5.05015 14.9488 4.58284 14.3752 4.58356Z" fill="#4338CA"/>
</svg>
